<?xml version="1.0" encoding="iso-8859-1"?>
<!-- Uploaded to: SVG Repo, www.svgrepo.com, Generator: SVG Repo Mixer Tools -->
<svg version="1.1" id="Layer_1" xmlns="http://www.w3.org/2000/svg" xmlns:xlink="http://www.w3.org/1999/xlink" 
	 viewBox="0 0 512 512" xml:space="preserve">
<circle style="fill:#00BAFF;" cx="256" cy="256" r="256"/>
<path style="fill:#009EDA;" d="M512,256c0-3.948-0.103-7.87-0.28-11.774L404.375,136.882
	c0.823,0.823-130.647,111.865-186.35,158.845c-18.508,13.583-109.927,81.432-109.222,80.728L243.684,511.7
	c4.081,0.192,8.186,0.3,12.316,0.3C397.385,512,512,397.385,512,256z"/>
<path style="fill:#FFFFFF;" d="M392.62,380.865H119.38c-8.223,0-14.89-6.666-14.89-14.89V146.024c0-8.223,6.666-14.89,14.89-14.89
	H392.62c8.223,0,14.89,6.666,14.89,14.89v219.951C407.51,374.199,400.844,380.865,392.62,380.865z"/>
<path style="fill:#E0F2FF;" d="M392.62,131.135H256.348v249.731H392.62c8.223,0,14.89-6.666,14.89-14.89V146.024
	C407.51,137.801,400.844,131.135,392.62,131.135z"/>
<path style="fill:#1E495F;" d="M407.51,146.024c0-8.223-6.666-14.89-14.89-14.89H119.38c-8.223,0-14.89,6.666-14.89,14.89v12.278
	h303.02V146.024z"/>
<path style="fill:#1D384E;" d="M407.51,146.024c0-8.223-6.666-14.89-14.89-14.89H256.348v27.167H407.51V146.024z"/>
<circle style="fill:#FF533C;" cx="125.91" cy="144.718" r="4.702"/>
<circle style="fill:#FFD153;" cx="141.584" cy="144.718" r="4.702"/>
<circle style="fill:#CADBE6;" cx="157.257" cy="144.718" r="4.702"/>
<g>
	<rect x="328.61" y="196.441" style="fill:#FF533C;" width="45.986" height="159.869"/>
	<rect x="137.404" y="295.706" style="fill:#FF533C;" width="45.986" height="60.604"/>
</g>
<rect x="201.143" y="218.384" style="fill:#FFA200;" width="45.986" height="137.927"/>
<rect x="264.871" y="248.686" style="fill:#DF2E18;" width="45.986" height="107.624"/>
</svg>